<?xml version="1.0"?>
<svg xmlns="http://www.w3.org/2000/svg" height="512px" viewBox="0 -36 496 496" width="512px" class=""><g><path d="m488 64h-8v-16c0-4.417969-3.582031-8-8-8h-8v-16c0-13.253906-10.746094-24-24-24h-48c-13.253906 0-24 10.746094-24 24v16h-8c-4.417969 0-8 3.582031-8 8v16h-208v-16c0-4.417969-3.582031-8-8-8h-8v-16c0-13.253906-10.746094-24-24-24h-48c-13.253906 0-24 10.746094-24 24v16h-8c-4.417969 0-8 3.582031-8 8v16h-8c-4.417969 0-8 3.582031-8 8v344c0 4.417969 3.582031 8 8 8h480c4.417969 0 8-3.582031 8-8v-344c0-4.417969-3.582031-8-8-8zm-104-40c0-4.417969 3.582031-8 8-8h48c4.417969 0 8 3.582031 8 8v16h-64zm-16 32h96v8h-96zm-320-32c0-4.417969 3.582031-8 8-8h48c4.417969 0 8 3.582031 8 8v16h-64zm-16 32h96v8h-96zm-16 24h464v48h-464zm464 328h-464v-264h464zm0 0" data-original="#000000" class="active-path" data-old_color="#000000" fill="#43CA1D"/><path d="m192 280h32v96c-.003906 3.496094 2.265625 6.589844 5.601562 7.640625.777344.238281 1.585938.359375 2.398438.359375 2.625 0 5.082031-1.289062 6.574219-3.449219l72-104c1.695312-2.445312 1.890625-5.628906.507812-8.261719-1.378906-2.636718-4.105469-4.289062-7.082031-4.289062h-32v-96c0-3.5-2.277344-6.589844-5.613281-7.632812-3.339844-1.042969-6.96875.207031-8.960938 3.082031l-72 104c-1.695312 2.445312-1.890625 5.628906-.507812 8.261719 1.378906 2.636718 4.105469 4.289062 7.082031 4.289062zm64-86.398438v78.398438c0 4.417969 3.582031 8 8 8h24.726562l-48.726562 70.398438v-78.398438c0-4.417969-3.582031-8-8-8h-24.726562zm0 0" data-original="#000000" class="active-path" data-old_color="#000000" fill="#43CA1D"/><path d="m56 296h16v16c0 4.417969 3.582031 8 8 8h32c4.417969 0 8-3.582031 8-8v-16h16c4.417969 0 8-3.582031 8-8v-32c0-4.417969-3.582031-8-8-8h-16v-16c0-4.417969-3.582031-8-8-8h-32c-4.417969 0-8 3.582031-8 8v16h-16c-4.417969 0-8 3.582031-8 8v32c0 4.417969 3.582031 8 8 8zm8-32h16c4.417969 0 8-3.582031 8-8v-16h16v16c0 4.417969 3.582031 8 8 8h16v16h-16c-4.417969 0-8 3.582031-8 8v16h-16v-16c0-4.417969-3.582031-8-8-8h-16zm0 0" data-original="#000000" class="active-path" data-old_color="#000000" fill="#43CA1D"/><path d="m360 296h80c4.417969 0 8-3.582031 8-8v-32c0-4.417969-3.582031-8-8-8h-80c-4.417969 0-8 3.582031-8 8v32c0 4.417969 3.582031 8 8 8zm8-32h64v16h-64zm0 0" data-original="#000000" class="active-path" data-old_color="#000000" fill="#43CA1D"/><path d="m88 96h-56c-4.417969 0-8 3.582031-8 8s3.582031 8 8 8h56c4.417969 0 8-3.582031 8-8s-3.582031-8-8-8zm0 0" data-original="#000000" class="active-path" data-old_color="#000000" fill="#43CA1D"/><path d="m128 96h-16c-4.417969 0-8 3.582031-8 8s3.582031 8 8 8h16c4.417969 0 8-3.582031 8-8s-3.582031-8-8-8zm0 0" data-original="#000000" class="active-path" data-old_color="#000000" fill="#43CA1D"/></g> </svg>
