<svg id="Layer_2" height="512" viewBox="0 0 128 128" width="512" xmlns="http://www.w3.org/2000/svg" data-name="Layer 2"><path d="m122.25 94.922h-116.5a4 4 0 0 1 -4-4v-6.948l20.016-26.962h84.468l20.016 26.962v6.949a4 4 0 0 1 -4 3.999z" fill="#e8f3fc"/><path d="m113.851 67.272h-24.33l-4.28-10.26h-3.641a1.744 1.744 0 0 0 .135.674l4 9.586h-20.2v-10.26h-3.5v10.26h-20.215l4-9.586a1.744 1.744 0 0 0 .135-.674h-3.648l-4.28 10.26h-23.878l-2.339 3.15a1.735 1.735 0 0 0 1.04.35h23.717l-5.226 12.528a1.75 1.75 0 1 0 3.23 1.348l5.789-13.876h21.664v13.2a1.75 1.75 0 0 0 3.5 0v-13.2h21.665l5.788 13.875a1.75 1.75 0 0 0 3.23-1.348l-5.226-12.527h23.719a1.739 1.739 0 0 0 1.307-.6z" fill="#b7dbf6"/><path d="m5.75 94.922h116.5a4 4 0 0 0 4-4v-6.948h-124.5v6.949a4 4 0 0 0 4 3.999z" fill="#06daf7"/><path d="m55.5 94.922h17v14.32h-17z" fill="#284cb2"/><path d="m90.568 126.25h-53.136v-8.504l10.008-8.504h33.12l10.008 8.504z" fill="#284cb2"/><g fill="#f4b500"><circle cx="64" cy="25.093" r="9.697"/><path d="m63.774 9.625a1.75 1.75 0 0 1 -1.75-1.75v-6.125a1.75 1.75 0 0 1 3.5 0v6.125a1.75 1.75 0 0 1 -1.75 1.75z"/><path d="m63.774 9.625a1.75 1.75 0 0 1 -1.75-1.75v-6.125a1.75 1.75 0 0 1 3.5 0v6.125a1.75 1.75 0 0 1 -1.75 1.75z"/><path d="m63.774 50.187a1.75 1.75 0 0 1 -1.75-1.75v-6.125a1.75 1.75 0 0 1 3.5 0v6.125a1.75 1.75 0 0 1 -1.75 1.75z"/><path d="m63.774 50.187a1.75 1.75 0 0 1 -1.75-1.75v-6.125a1.75 1.75 0 0 1 3.5 0v6.125a1.75 1.75 0 0 1 -1.75 1.75z"/><path d="m75.949 14.668a1.75 1.75 0 0 1 -1.237-2.987l4.331-4.331a1.75 1.75 0 0 1 2.475 2.475l-4.331 4.331a1.744 1.744 0 0 1 -1.238.512z"/><path d="m75.949 14.668a1.75 1.75 0 0 1 -1.237-2.987l4.331-4.331a1.75 1.75 0 0 1 2.475 2.475l-4.331 4.331a1.744 1.744 0 0 1 -1.238.512z"/><path d="m47.268 43.35a1.75 1.75 0 0 1 -1.237-2.987l4.331-4.331a1.75 1.75 0 0 1 2.475 2.475l-4.331 4.331a1.744 1.744 0 0 1 -1.238.512z"/><path d="m47.268 43.35a1.75 1.75 0 0 1 -1.237-2.987l4.331-4.331a1.75 1.75 0 0 1 2.475 2.475l-4.331 4.331a1.744 1.744 0 0 1 -1.238.512z"/><path d="m87.118 26.843h-6.125a1.75 1.75 0 0 1 0-3.5h6.125a1.75 1.75 0 0 1 0 3.5z"/><path d="m87.118 26.843h-6.125a1.75 1.75 0 0 1 0-3.5h6.125a1.75 1.75 0 0 1 0 3.5z"/><path d="m46.556 26.843h-6.125a1.75 1.75 0 0 1 0-3.5h6.125a1.75 1.75 0 0 1 0 3.5z"/><path d="m46.556 26.843h-6.125a1.75 1.75 0 0 1 0-3.5h6.125a1.75 1.75 0 0 1 0 3.5z"/><path d="m80.28 43.35a1.744 1.744 0 0 1 -1.237-.513l-4.331-4.331a1.75 1.75 0 0 1 2.475-2.475l4.331 4.331a1.75 1.75 0 0 1 -1.238 2.988z"/><path d="m80.28 43.35a1.744 1.744 0 0 1 -1.237-.513l-4.331-4.331a1.75 1.75 0 0 1 2.475-2.475l4.331 4.331a1.75 1.75 0 0 1 -1.238 2.988z"/><path d="m51.6 14.668a1.744 1.744 0 0 1 -1.237-.513l-4.332-4.331a1.75 1.75 0 0 1 2.474-2.474l4.331 4.331a1.75 1.75 0 0 1 -1.236 2.987z"/><path d="m51.6 14.668a1.744 1.744 0 0 1 -1.237-.513l-4.332-4.331a1.75 1.75 0 0 1 2.474-2.474l4.331 4.331a1.75 1.75 0 0 1 -1.236 2.987z"/></g></svg>