<svg id="Layer_2" height="512" viewBox="0 0 128 128" width="512" xmlns="http://www.w3.org/2000/svg" data-name="Layer 2"><path d="m122.25 94.922h-116.5a4 4 0 0 1 -4-4v-6.948l20.016-26.962h84.468l20.016 26.962v6.949a4 4 0 0 1 -4 3.999z" fill="#e8f3fc"/><path d="m5.75 94.922h116.5a4 4 0 0 0 4-4v-6.948h-124.5v6.949a4 4 0 0 0 4 3.999z" fill="#06daf7"/><path d="m55.5 94.922h17v14.32h-17z" fill="#284cb2"/><path d="m90.568 126.25h-53.136v-8.504l10.008-8.504h33.12l10.008 8.504z" fill="#284cb2"/><circle cx="64" cy="25.093" fill="#f4b500" r="9.697"/><path d="m97.833 93.172h-3.333a1.75 1.75 0 0 0 0 3.5h3.333a1.75 1.75 0 0 0 0-3.5z"/><path d="m127.92 83.479a1.755 1.755 0 0 0 -.265-.548l-20.016-26.962a1.75 1.75 0 0 0 -1.405-.707h-67.553a1.75 1.75 0 0 0 0 3.5h2.9l-3.55 8.51h-21.7l6.318-8.51h5.437a1.75 1.75 0 0 0 0-3.5h-6.32a1.75 1.75 0 0 0 -1.405.707l-20.016 26.962a1.827 1.827 0 0 0 -.345 1.043v6.949a5.757 5.757 0 0 0 5.75 5.75h48v10.82h-6.311a1.75 1.75 0 0 0 -1.133.417l-10.008 8.5a1.75 1.75 0 0 0 -.617 1.333v8.5a1.75 1.75 0 0 0 1.75 1.75h53.137a1.75 1.75 0 0 0 1.75-1.75v-8.5a1.75 1.75 0 0 0 -.617-1.333l-10.008-8.5a1.75 1.75 0 0 0 -1.133-.417h-6.31v-10.821h11.25a1.75 1.75 0 0 0 0-3.5h-79.75a2.252 2.252 0 0 1 -2.25-2.25v-5.2h121v5.2a2.252 2.252 0 0 1 -2.25 2.25h-15.417a1.75 1.75 0 0 0 0 3.5h15.417a5.757 5.757 0 0 0 5.75-5.75v-6.948a1.73 1.73 0 0 0 -.08-.495zm-39.1 35.077v5.944h-49.638v-5.944l8.9-7.563h31.835zm-18.07-21.884v10.82h-13.5v-10.82zm25.008-14.448-4.777-11.452h23.289l8.5 11.451zm-30.234-11.452h21.665l4.777 11.451h-26.442zm-3.5 11.451h-26.441l4.777-11.451h21.664zm20.155-23.461 3.55 8.51h-20.2v-8.51zm29.493 8.51h-22.151l-3.55-8.51h19.382zm-66.3-8.51h16.652v8.51h-20.204zm-8.8 12.01-4.782 11.452h-26.561l8.5-11.451z"/><path d="m64 36.54a11.447 11.447 0 1 0 -11.447-11.447 11.459 11.459 0 0 0 11.447 11.447zm0-19.394a7.947 7.947 0 1 1 -7.947 7.947 7.956 7.956 0 0 1 7.947-7.947z"/><path d="m63.774 9.625a1.75 1.75 0 0 0 1.75-1.75v-6.125a1.75 1.75 0 0 0 -3.5 0v6.125a1.75 1.75 0 0 0 1.75 1.75z"/><path d="m62.024 42.312v6.125a1.75 1.75 0 0 0 3.5 0v-6.125a1.75 1.75 0 0 0 -3.5 0z"/><path d="m75.949 14.668a1.744 1.744 0 0 0 1.237-.513l4.331-4.331a1.75 1.75 0 0 0 -2.474-2.474l-4.331 4.331a1.75 1.75 0 0 0 1.237 2.987z"/><path d="m50.362 36.031-4.331 4.331a1.75 1.75 0 1 0 2.475 2.475l4.331-4.331a1.75 1.75 0 0 0 -2.475-2.475z"/><path d="m79.243 25.093a1.75 1.75 0 0 0 1.75 1.75h6.125a1.75 1.75 0 0 0 0-3.5h-6.125a1.75 1.75 0 0 0 -1.75 1.75z"/><path d="m40.431 26.843h6.125a1.75 1.75 0 0 0 0-3.5h-6.125a1.75 1.75 0 0 0 0 3.5z"/><path d="m74.712 36.031a1.749 1.749 0 0 0 0 2.475l4.331 4.331a1.75 1.75 0 0 0 2.475-2.475l-4.331-4.331a1.749 1.749 0 0 0 -2.475 0z"/><path d="m50.362 14.155a1.75 1.75 0 0 0 2.475-2.475l-4.332-4.33a1.75 1.75 0 0 0 -2.475 2.475z"/></svg>